<svg xmlns="http://www.w3.org/2000/svg" xmlns:xlink="http://www.w3.org/1999/xlink" width="570" height="570" viewBox="0 0 570 570">
  <defs>
    <style>
      .cls-1 {
        clip-path: url(#clip-dove3);
      }

      .cls-2 {
        fill: #b2e3ff;
      }

      .cls-3 {
        fill: #a9d8f2;
      }

      .cls-4 {
        fill: #dbe77f;
      }

      .cls-5 {
        fill: #ced977;
      }

      .cls-6 {
        fill: #dcdcde;
      }

      .cls-7 {
        fill: #f5f6f6;
      }

      .cls-8 {
        fill: #7a7a7c;
      }
    </style>
    <clipPath id="clip-dove3">
      <rect width="570" height="570"/>
    </clipPath>
  </defs>
  <g id="dove3" class="cls-1">
    <g id="dove" transform="translate(29 29)">
      <circle id="타원_1" data-name="타원 1" class="cls-2" cx="256" cy="256" r="256"/>
      <path id="패스_1" data-name="패스 1" class="cls-3" d="M495.14,347.38c-.268-.2-.528-.412-.8-.612.4-.056.76-.1,1.092-.124.072-.188.152-.376.224-.564-.756-.588-1.524-1.18-2.3-1.768a15.854,15.854,0,0,1,1.976-.168c-.956-.764-1.96-1.532-2.972-2.288a16.789,16.789,0,0,1,1.98-.168c-.956-.76-1.96-1.528-2.972-2.284a16.026,16.026,0,0,1,1.976-.172c-.956-.76-1.96-1.528-2.972-2.288a16.668,16.668,0,0,1,1.98-.164c-.956-.764-1.96-1.532-2.972-2.288a15.971,15.971,0,0,1,1.98-.168c-.956-.764-1.956-1.528-2.972-2.288a15.971,15.971,0,0,1,1.98-.168c-.952-.764-1.956-1.528-2.972-2.288a16.668,16.668,0,0,1,1.98-.164c-.952-.764-1.956-1.532-2.968-2.288a15.963,15.963,0,0,1,1.976-.172c-.952-.76-1.956-1.524-2.968-2.284a15.849,15.849,0,0,1,1.98-.168c-.956-.764-1.96-1.532-2.972-2.288a16.654,16.654,0,0,1,1.98-.168c-.956-.76-1.96-1.528-2.972-2.284a15.956,15.956,0,0,1,1.98-.172c-.956-.76-1.96-1.528-2.972-2.288a16.6,16.6,0,0,1,1.98-.164c-.956-.764-1.96-1.532-2.972-2.288a15.971,15.971,0,0,1,1.98-.168c-.956-.764-1.96-1.528-2.972-2.288a15.971,15.971,0,0,1,1.98-.168c-.956-.764-1.96-1.528-2.972-2.288a16.668,16.668,0,0,1,1.98-.164c-.956-.764-1.96-1.532-2.972-2.288a16.082,16.082,0,0,1,1.98-.172c-.956-.76-1.96-1.524-2.972-2.284a15.971,15.971,0,0,1,1.98-.168c-.956-.764-1.96-1.532-2.972-2.288a16.789,16.789,0,0,1,1.98-.168c-.956-.76-1.96-1.528-2.972-2.284a16.082,16.082,0,0,1,1.98-.172c-.956-.76-1.96-1.528-2.972-2.288a16.668,16.668,0,0,1,1.98-.164c-.956-.764-1.96-1.532-2.972-2.288a15.971,15.971,0,0,1,1.98-.168c-.952-.764-1.96-1.528-2.972-2.288a15.971,15.971,0,0,1,1.98-.168c-.952-.764-1.956-1.528-2.968-2.288a16.546,16.546,0,0,1,1.976-.164c-.952-.764-1.956-1.532-2.968-2.288a15.963,15.963,0,0,1,1.976-.172c-.952-.76-1.956-1.524-2.968-2.284a15.854,15.854,0,0,1,1.976-.168c-.952-.764-1.956-1.532-2.968-2.288a16.654,16.654,0,0,1,1.98-.168c-.956-.76-1.96-1.528-2.972-2.284a16.018,16.018,0,0,1,1.98-.172c-.956-.76-1.96-1.528-2.972-2.288a16.61,16.61,0,0,1,1.976-.164c-.956-.764-1.96-1.532-2.972-2.288a15.971,15.971,0,0,1,1.98-.168c-.956-.764-1.96-1.528-2.968-2.288a15.854,15.854,0,0,1,1.976-.168c-.956-.764-1.96-1.528-2.972-2.288a16.668,16.668,0,0,1,1.98-.164c-.956-.764-1.96-1.532-2.968-2.288a15.963,15.963,0,0,1,1.976-.172c-.956-.76-1.96-1.524-2.972-2.284a15.971,15.971,0,0,1,1.98-.168c-.956-.764-1.96-1.532-2.972-2.288a16.789,16.789,0,0,1,1.98-.168c-.956-.76-1.96-1.528-2.968-2.284a15.963,15.963,0,0,1,1.976-.172c-.956-.76-1.96-1.528-2.972-2.288a16.668,16.668,0,0,1,1.98-.164c-.956-.764-1.96-1.528-2.968-2.288a15.854,15.854,0,0,1,1.976-.168c-.952-.764-1.96-1.528-2.972-2.288a15.971,15.971,0,0,1,1.98-.168c-.952-.764-1.956-1.528-2.968-2.288a15.854,15.854,0,0,1,1.976-.168c-.952-.764-1.956-1.528-2.968-2.288a15.854,15.854,0,0,1,1.976-.168c-.952-.764-1.956-1.528-2.964-2.288a15.738,15.738,0,0,1,1.972-.168c-.952-.764-1.956-1.528-2.968-2.288a15.849,15.849,0,0,1,1.98-.168c-.956-.764-1.96-1.528-2.968-2.288a15.794,15.794,0,0,1,1.976-.168c-.956-.764-1.96-1.528-2.972-2.288a15.971,15.971,0,0,1,1.98-.168c-.956-.764-1.96-1.528-2.968-2.288a15.854,15.854,0,0,1,1.976-.168c-.956-.764-1.96-1.528-2.972-2.288a15.971,15.971,0,0,1,1.98-.168c-.956-.764-1.96-1.528-2.968-2.288a15.854,15.854,0,0,1,1.976-.168c-.956-.764-1.96-1.528-2.972-2.288a15.971,15.971,0,0,1,1.98-.168c-.956-.764-1.96-1.528-2.972-2.288a15.971,15.971,0,0,1,1.98-.168c-.956-.764-1.96-1.528-2.968-2.288a15.854,15.854,0,0,1,1.976-.168c-.956-.764-1.96-1.528-2.972-2.288a15.971,15.971,0,0,1,1.98-.168c-.956-.764-1.96-1.528-2.968-2.288a15.854,15.854,0,0,1,1.976-.168c-.956-.764-1.96-1.528-2.972-2.292.776-.1-315.549,174.468-315.109,175.24a9.736,9.736,0,0,0,.992,2.452,9.852,9.852,0,0,0,.992,2.456,9.7,9.7,0,0,0,.992,2.456,9.825,9.825,0,0,0,.992,2.452,9.586,9.586,0,0,0,.992,2.456,9.852,9.852,0,0,0,.992,2.456,9.617,9.617,0,0,0,.992,2.452,9.731,9.731,0,0,0,.992,2.456,9.842,9.842,0,0,0,.988,2.456,10.073,10.073,0,0,0,.992,2.452,9.972,9.972,0,0,0,.992,2.46,8792.638,8792.638,0,0,0,1.988,4.908,786.228,786.228,0,0,0,1.984,4.908,1891.106,1891.106,0,0,0,1.98,4.912,674.086,674.086,0,0,1,1.984,4.912,786.228,786.228,0,0,1,1.984,4.908,1184.562,1184.562,0,0,1,1.984,4.908,9.742,9.742,0,0,0,1,2.456,786.228,786.228,0,0,0,1.984,4.908,9.721,9.721,0,0,0,.988,2.456,9.863,9.863,0,0,0,1,2.456,1587.6,1587.6,0,0,0,1.984,4.912,3165.864,3165.864,0,0,0,1.98,4.908,726.3,726.3,0,0,1,1.98,4.908,472.728,472.728,0,0,1,1.984,4.912,10.44,10.44,0,0,0,1,2.468,1161.672,1161.672,0,0,1,1.984,4.9,10.166,10.166,0,0,0,.992,2.456,4676.115,4676.115,0,0,0,1.984,4.908,9.3,9.3,0,0,0,.72,1.784A253.94,253.94,0,0,0,256,512C365.18,512,458.34,443.624,495.14,347.38Z"/>
    </g>
    <g id="dove2" transform="translate(94.289 55.143)">
      <path id="패스_14" data-name="패스 14" class="cls-4" d="M433.87,166.249s-7.71,14.048-4.44,27.289S446.355,216.8,446.355,216.8s7.419-15.227,4.149-28.468S433.87,166.249,433.87,166.249Z" transform="translate(-72.479 -22.967)"/>
      <path id="패스_15" data-name="패스 15" class="cls-5" d="M434.938,166.249,447.423,216.8s7.419-15.227,4.149-28.468S434.938,166.249,434.938,166.249Z" transform="translate(-73.547 -22.967)"/>
      <path id="패스_16" data-name="패스 16" class="cls-4" d="M501.491,232.3S491.2,220.016,477.67,218.261s-27.818,7.336-27.818,7.336,11.5,12.437,25.025,14.192S501.491,232.3,501.491,232.3Z" transform="translate(-76.069 -31.724)"/>
      <path id="패스_17" data-name="패스 17" class="cls-5" d="M501.491,233.836l-51.639-6.7s11.5,12.437,25.025,14.192S501.491,233.836,501.491,233.836Z" transform="translate(-76.069 -33.263)"/>
      <path id="패스_18" data-name="패스 18" class="cls-4" d="M434.128,276.631H423.135c0-29.521,12.5-57.157,32.62-72.12l6.559,8.821C444.93,226.261,434.128,250.516,434.128,276.631Z" transform="translate(-71.551 -29.437)"/>
      <path id="패스_19" data-name="패스 19" class="cls-6" d="M171.188,116.534c13.126-49.295,37.179-86.1,37.179-86.1,31.514,70.558,91.174,61.655,108.8,141.115V287.6L171.188,177.547Z" transform="translate(-28.947)"/>
      <path id="패스_20" data-name="패스 20" class="cls-7" d="M317.068,168.232c-33.833,0-52.07,45.66-54.84,53.17-1.424-13.21-7.093-26.973-19.387-42.682-34.222-43.728-125.48-50.83-193.924-95.06,0,0-14.026,56.662,20.258,105.2,0,0,8.99,113.451,86.433,137.507l-.214.21S111.655,346.887,0,323.347c0,0,77.887,126.634,234.786,81.033,111.492-32.4,92.238-170.391,137.5-187.686C358.875,196.936,352.552,168.232,317.068,168.232Z" transform="translate(0 -9.001)"/>
      <circle id="타원_3" data-name="타원 3" class="cls-8" cx="8.718" cy="8.718" r="8.718" transform="translate(313.604 191.706)"/>
      <path id="패스_21" data-name="패스 21" class="cls-4" d="M499.036,176.959s-15.993-1.012-26.591,7.574-13.869,25.205-13.869,25.205,16.936.248,27.534-8.338S499.036,176.959,499.036,176.959Z" transform="translate(-77.544 -24.772)"/>
      <path id="패스_22" data-name="패스 22" class="cls-5" d="M499.036,176.966l-40.461,32.779s16.936.248,27.534-8.338S499.036,176.966,499.036,176.966Z" transform="translate(-77.544 -24.779)"/>
    </g>
  </g>
</svg>
